<?xml version="1.0" encoding="utf-8"?>
<!-- Generator: Adobe Illustrator 21.1.0, SVG Export Plug-In . SVG Version: 6.00 Build 0)  -->
<svg version="1.1" id="Layer_1" xmlns="http://www.w3.org/2000/svg" xmlns:xlink="http://www.w3.org/1999/xlink" x="0px" y="0px"
	 viewBox="0 0 792 612" style="enable-background:new 0 0 792 612;" xml:space="preserve">
<style type="text/css">
	.st0{fill:url(#SVGID_1_);}
	.st1{fill:url(#SVGID_2_);}
	.st2{fill:url(#SVGID_3_);}
	.st3{fill:url(#SVGID_4_);}
	.st4{fill:url(#SVGID_5_);}
	.st5{fill:url(#SVGID_6_);}
	.st6{fill:url(#SVGID_7_);}
	.st7{fill:url(#SVGID_8_);}
	.st8{fill:url(#SVGID_9_);}
	.st9{fill:url(#SVGID_10_);}
</style>
<g>
	<linearGradient id="SVGID_1_" gradientUnits="userSpaceOnUse" x1="284.6722" y1="490.808" x2="314.3926" y2="436.5384">
		<stop  offset="0" style="stop-color:#576C1D"/>
		<stop  offset="0.5002" style="stop-color:#91B430"/>
		<stop  offset="1" style="stop-color:#5D741F"/>
	</linearGradient>
	<path class="st0" d="M286.1,388l2.8,66.8c2.8-2.5,6.2-4.3,10.4-4.3c1.5,0,4.3,0,36.9,6.7c6.9,1.4,13.5,2.6,19.8,3.5
		c-9.7-5-19.2-11.8-28.3-20.5C311.6,424.9,297.7,407.4,286.1,388z"/>
	<linearGradient id="SVGID_2_" gradientUnits="userSpaceOnUse" x1="429.3298" y1="215.07" x2="467.757" y2="177.478">
		<stop  offset="0" style="stop-color:#576C1D"/>
		<stop  offset="0.5002" style="stop-color:#91B430"/>
		<stop  offset="1" style="stop-color:#5D741F"/>
	</linearGradient>
	<path class="st1" d="M469.9,232.2l-1.9-53.7c-2.9,1.6-5.7,2.1-8,2.1c-3.3,0-10.1-0.8-33.1-7c-3.6-1-7.2-1.8-10.8-2.6
		c6.1,3.8,12,8.5,17.7,14.2C446.3,197.7,458.4,213.4,469.9,232.2z"/>
	<linearGradient id="SVGID_3_" gradientUnits="userSpaceOnUse" x1="286.5578" y1="315.0878" x2="489.2491" y2="315.0878">
		<stop  offset="0" style="stop-color:#576C1D"/>
		<stop  offset="0.5002" style="stop-color:#91B430"/>
		<stop  offset="1" style="stop-color:#5D741F"/>
	</linearGradient>
	<path class="st2" d="M478.6,322.6l-0.1-0.2c-2.7-5.2-6.6-10-11.5-14.4c-5.3-4.8-10.4-8.7-15.1-11.8c-4.6-3-10.6-5.9-17.9-8.7
		c-7.8-3-14.4-5.3-19.5-7c-5.2-1.7-16.3-4.8-33.2-9.4c-17.7-4.8-33-11.2-45.3-18.9c-14-8.8-21.3-22.1-21.3-38.5
		c0-12.4,3.5-23.1,10.4-31.8c-4.8,3.1-9.2,6.7-13.3,10.8c-16.9,17.1-25.2,36.9-25.2,60.6c0,29.3,7.8,50.1,24,63.6
		c8.4,7,17.3,12.8,26.6,17.1c9.5,4.4,25.3,9.7,46.9,15.8c22.9,6.4,40.9,14.2,53.6,23c14.2,10,21.4,24.4,21.4,42.8
		c0,13.3-3.5,24.3-10.5,33c4.9-3.2,9.6-6.9,13.9-11c18-17.5,26.8-40.2,26.8-69.4C489.2,350.4,485.7,335.2,478.6,322.6z"/>
	<linearGradient id="SVGID_4_" gradientUnits="userSpaceOnUse" x1="268.7417" y1="315.3577" x2="505.4189" y2="315.3577">
		<stop  offset="0" style="stop-color:#516C00"/>
		<stop  offset="0.2247" style="stop-color:#91B430"/>
		<stop  offset="0.6073" style="stop-color:#74AB27"/>
		<stop  offset="1" style="stop-color:#769328"/>
	</linearGradient>
	<path class="st3" d="M492.7,314.7c-3.6-6.9-8.6-13.2-14.9-18.8c-5.9-5.3-11.6-9.8-17-13.3c-5.5-3.6-12.6-7.1-21.1-10.3
		c-8-3.1-14.9-5.5-20.3-7.3c-5.5-1.8-16.6-4.9-34-9.6c-16.2-4.4-29.9-10.1-40.9-17c-9.4-5.9-13.8-13.8-13.8-24.8
		c0-11.3,3.9-20.1,11.8-26.7c8.3-6.9,20.5-10.5,36.2-10.5c15.7,0,30,6.7,43.7,20.4c14.6,14.6,28.8,34.3,42.2,58.6l2.3,4.2h20.1
		l-3.6-103.7h-17.4l-2.3,4.2c-2,3.7-3.5,4.5-3.8,4.5c-1.5,0-7.3-0.6-28.9-6.4c-17.2-4.6-34.1-7-50-7c-33.9,0-61.1,10.1-80.9,30.1
		c-19.8,20-29.9,44.2-29.9,72c0,33.9,10,59.4,29.8,76c9.5,7.9,19.6,14.4,30.2,19.3c10.5,4.9,26.6,10.3,49.3,16.7
		c21.1,5.9,37.5,12.9,48.7,20.7c9.8,6.8,14.5,16.5,14.5,29.6c0,13.1-4.3,22.5-13.2,28.7c-9.8,6.9-20.9,10.2-33.7,10.2
		c-19.7,0-38.9-8.7-57.1-26c-19-18-34.9-39.5-47.1-63.7l-2.2-4.4h-20.8l5,119.3h19.1l2.1-4.9c2.4-5.5,4.2-7.5,4.8-8.1
		c2.2,0.3,9.5,1.4,33.1,6.3c21.7,4.4,41.2,6.7,58.2,6.7c33.8,0,61.6-10.3,82.6-30.7c21-20.4,31.7-47.7,31.7-81
		C505.4,347.7,501.2,329.8,492.7,314.7z M468.1,443.2c-19.5,18.9-45.1,28.4-76.9,28.4c-16.5,0-35.3-2.2-56.6-6.5
		c-21.2-4.3-33-6.5-35.3-6.5c-4,0-7.9,4.3-11.7,13h-6.1l-4.3-103.1h7.4c12.7,25.1,29,47.1,48.8,65.9c19.8,18.8,40.7,28.2,62.6,28.2
		c14.4,0,27.2-3.9,38.4-11.7c11.1-7.8,16.7-19.6,16.7-35.3c0-15.7-6-27.8-18-36.2c-12-8.4-29-15.7-51.1-21.9
		c-22.1-6.2-38.1-11.6-48.1-16.3c-10-4.6-19.4-10.7-28.4-18.2c-17.9-15-26.9-38.3-26.9-69.8c0-25.7,9.2-47.8,27.5-66.3
		c18.3-18.5,43.4-27.7,75.2-27.7c15.3,0,31.3,2.2,47.9,6.7c16.6,4.5,26.9,6.7,31,6.7c4,0,7.7-2.9,10.8-8.7h4.8l3,87.5h-6.9
		c-13.9-25.1-28.4-45.3-43.6-60.5c-15.2-15.2-31.6-22.8-49.4-22.8c-17.8,0-31.6,4.1-41.4,12.4c-9.8,8.2-14.7,19.2-14.7,32.9
		c0,13.7,5.9,24.3,17.6,31.6c11.7,7.4,26.1,13.4,43.1,18c17,4.6,28.2,7.8,33.6,9.5c5.3,1.7,12,4.1,19.9,7.2c7.9,3,14.4,6.2,19.5,9.5
		c5.1,3.3,10.4,7.5,16,12.6c5.6,5.1,10,10.6,13.2,16.7c7.8,13.9,11.7,30.3,11.7,49.4C497.3,399.2,487.6,424.3,468.1,443.2z"/>
	<linearGradient id="SVGID_5_" gradientUnits="userSpaceOnUse" x1="277.1731" y1="315.3577" x2="497.334" y2="315.3577">
		<stop  offset="0" style="stop-color:#576C1D"/>
		<stop  offset="0.2247" style="stop-color:#91B430"/>
		<stop  offset="0.8525" style="stop-color:#749127"/>
		<stop  offset="1" style="stop-color:#5D741F"/>
	</linearGradient>
	<path class="st4" d="M485.6,318.6c-3.2-6.1-7.6-11.6-13.2-16.7c-5.6-5.1-11-9.2-16-12.6c-5.1-3.3-11.6-6.5-19.5-9.5
		c-8-3-14.6-5.4-19.9-7.2c-5.4-1.7-16.5-4.9-33.6-9.5c-17.1-4.6-31.4-10.6-43.1-18c-11.7-7.4-17.6-17.9-17.6-31.6
		c0-13.7,4.9-24.7,14.7-32.9c9.8-8.2,23.6-12.4,41.4-12.4c17.8,0,34.2,7.6,49.4,22.8c15.2,15.2,29.7,35.3,43.6,60.5h6.9l-3-87.5
		h-4.8c-3.2,5.8-6.8,8.7-10.8,8.7c-4,0-14.4-2.2-31-6.7c-16.6-4.5-32.6-6.7-47.9-6.7c-31.8,0-56.8,9.3-75.2,27.7
		c-18.4,18.5-27.5,40.6-27.5,66.3c0,31.5,9,54.8,26.9,69.8c9,7.5,18.4,13.6,28.4,18.2c10,4.6,26,10,48.1,16.3
		c22.1,6.2,39.1,13.5,51.1,21.9c12,8.4,18,20.4,18,36.2c0,15.8-5.6,27.5-16.7,35.3c-11.1,7.8-23.9,11.7-38.4,11.7
		c-22,0-42.8-9.4-62.6-28.2c-19.8-18.8-36-40.7-48.8-65.9h-7.4l4.3,103.1h6.1c3.8-8.7,7.7-13,11.7-13c2.3,0,14.1,2.2,35.3,6.5
		c21.2,4.3,40.1,6.5,56.6,6.5c31.8,0,57.4-9.5,76.9-28.4c19.5-18.9,29.3-44,29.3-75.2C497.3,348.9,493.4,332.5,485.6,318.6z
		 M427,173.6c23,6.2,29.8,7,33.1,7c2.3,0,5.1-0.5,8-2.1l1.9,53.7c-11.5-18.8-23.6-34.6-36-47c-5.7-5.7-11.6-10.4-17.7-14.2
		C419.8,171.8,423.3,172.7,427,173.6z M336.2,457.2c-32.7-6.7-35.4-6.7-36.9-6.7c-4.2,0-7.6,1.8-10.4,4.3l-2.8-66.8
		c11.6,19.4,25.6,36.9,41.6,52.2c9.1,8.7,18.6,15.5,28.3,20.5C349.7,459.7,343.1,458.6,336.2,457.2z M462.5,437.4
		c-4.3,4.2-8.9,7.9-13.9,11c7-8.6,10.5-19.7,10.5-33c0-18.5-7.2-32.9-21.4-42.8c-12.7-8.9-30.7-16.6-53.6-23
		c-21.6-6.1-37.4-11.4-46.9-15.8c-9.3-4.3-18.2-10-26.6-17.1c-16.1-13.5-24-34.3-24-63.6c0-23.7,8.2-43.5,25.2-60.6
		c4.1-4.1,8.5-7.7,13.3-10.8c-6.9,8.7-10.4,19.4-10.4,31.8c0,16.4,7.4,29.7,21.3,38.5c12.3,7.8,27.6,14.1,45.3,18.9
		c16.9,4.6,28,7.7,33.2,9.4c5.2,1.7,11.8,4,19.5,7c7.3,2.8,13.4,5.7,17.9,8.7c4.7,3.1,9.8,7.1,15.1,11.8c4.9,4.4,8.7,9.2,11.5,14.4
		l0.1,0.2c7.1,12.6,10.7,27.9,10.7,45.4C489.2,397.2,480.5,419.9,462.5,437.4z"/>
	<linearGradient id="SVGID_6_" gradientUnits="userSpaceOnUse" x1="286.5578" y1="315.0878" x2="489.2491" y2="315.0878">
		<stop  offset="0" style="stop-color:#576C1D"/>
		<stop  offset="0.5002" style="stop-color:#91B430"/>
		<stop  offset="1" style="stop-color:#5D741F"/>
	</linearGradient>
	<path class="st5" d="M478.6,322.6l-0.1-0.2c-2.7-5.2-6.6-10-11.5-14.4c-5.3-4.8-10.4-8.7-15.1-11.8c-4.6-3-10.6-5.9-17.9-8.7
		c-7.8-3-14.4-5.3-19.5-7c-5.2-1.7-16.3-4.8-33.2-9.4c-17.7-4.8-33-11.2-45.3-18.9c-14-8.8-21.3-22.1-21.3-38.5
		c0-12.4,3.5-23.1,10.4-31.8c-4.8,3.1-9.2,6.7-13.3,10.8c-16.9,17.1-25.2,36.9-25.2,60.6c0,29.3,7.8,50.1,24,63.6
		c8.4,7,17.3,12.8,26.6,17.1c9.5,4.4,25.3,9.7,46.9,15.8c22.9,6.4,40.9,14.2,53.6,23c14.2,10,21.4,24.4,21.4,42.8
		c0,13.3-3.5,24.3-10.5,33c4.9-3.2,9.6-6.9,13.9-11c18-17.5,26.8-40.2,26.8-69.4C489.2,350.4,485.7,335.2,478.6,322.6z"/>
	<g>
		<linearGradient id="SVGID_7_" gradientUnits="userSpaceOnUse" x1="359.7508" y1="369.2531" x2="359.7508" y2="517.4765">
			<stop  offset="0" style="stop-color:#576C1D"/>
			<stop  offset="0.5002" style="stop-color:#91B430"/>
			<stop  offset="1" style="stop-color:#5D741F"/>
		</linearGradient>
		<path class="st6" d="M344.6,506.4c0,7.8,6.8,14.1,15.2,14.1c8.4,0,15.2-6.3,15.2-14.1V363.9c-12-3.5-22.1-6.6-30.3-9.6V506.4z"/>
		<linearGradient id="SVGID_8_" gradientUnits="userSpaceOnUse" x1="404.7773" y1="369.2531" x2="404.7773" y2="517.4765">
			<stop  offset="0" style="stop-color:#576C1D"/>
			<stop  offset="0.5002" style="stop-color:#91B430"/>
			<stop  offset="1" style="stop-color:#5D741F"/>
		</linearGradient>
		<path class="st7" d="M389.6,368.2v85.9v8.1v9.4v8.1v26.8c0,7.8,6.8,14.1,15.2,14.1c8.4,0,15.2-6.3,15.2-14.1v-29.6v-8.2v-10.3
			v-8.7v-68.8C411.7,376.2,401.6,372,389.6,368.2z"/>
	</g>
	<g>
		<linearGradient id="SVGID_9_" gradientUnits="userSpaceOnUse" x1="358.8092" y1="237.1245" x2="361.5042" y2="96.986">
			<stop  offset="0" style="stop-color:#576C1D"/>
			<stop  offset="0.5002" style="stop-color:#91B430"/>
			<stop  offset="1" style="stop-color:#5D741F"/>
		</linearGradient>
		<path class="st8" d="M359.8,110.1c-8.4,0-15.2,6.3-15.2,14.1v31.4v8.4v11.6v9.6v53.1c8.5,5.3,18.7,10,30.3,13.8v-75.8v-8.1v-9.1
			v-8.1v-26.9C374.9,116.5,368.1,110.1,359.8,110.1z"/>
		<linearGradient id="SVGID_10_" gradientUnits="userSpaceOnUse" x1="403.9439" y1="237.9925" x2="406.6389" y2="97.854">
			<stop  offset="0" style="stop-color:#576C1D"/>
			<stop  offset="0.5002" style="stop-color:#91B430"/>
			<stop  offset="1" style="stop-color:#5D741F"/>
		</linearGradient>
		<path class="st9" d="M404.8,110.1c-8.4,0-15.2,6.3-15.2,14.1v132.2c15,4.1,24.7,6.9,29.8,8.5c0.2,0.1,0.4,0.1,0.6,0.2V124.3
			C419.9,116.5,413.1,110.1,404.8,110.1z"/>
	</g>
</g>
</svg>
